Coordinates
version=1
nRows=17
nColumns=40
inDegrees=yes

Units are S.I. units (second, meters, Newtons, ...)
Angles are in degrees.

endheader
time	pelvis_tilt	pelvis_list	pelvis_rotation	pelvis_tx	pelvis_ty	pelvis_tz	hip_flexion_r	hip_adduction_r	hip_rotation_r	knee_angle_r	knee_angle_r_beta	ankle_angle_r	subtalar_angle_r	mtp_angle_r	hip_flexion_l	hip_adduction_l	hip_rotation_l	knee_angle_l	knee_angle_l_beta	ankle_angle_l	subtalar_angle_l	mtp_angle_l	lumbar_extension	lumbar_bending	lumbar_rotation	arm_flex_r	arm_add_r	arm_rot_r	elbow_flex_r	pro_sup_r	wrist_flex_r	wrist_dev_r	arm_flex_l	arm_add_l	arm_rot_l	elbow_flex_l	pro_sup_l	wrist_flex_l	wrist_dev_l
     28.50414286	     -6.57492783	     -6.84179731	      5.13559952	      1.04943385	      0.92622040	      0.47304485	     13.30598501	      3.57013217	    -15.69909742	     18.59368202	     18.59368202	     12.91064797	     -0.35032571	      0.31345345	     40.42324524	     -9.27679674	      9.29908156	     71.77673111	     71.77673111	      7.93437873	    -18.92911927	     13.90850359	    -11.95576939	      3.52009304	      3.24345081	     15.16018267	    -17.57561233	     -0.02586290	     73.68037695	     44.76294497	      0.00000000	      0.00000000	      3.08285382	     -7.76379215	     -4.81578127	     36.53030762	     47.09558735	      0.00000000	      0.00000000
     28.51578571	     -6.70148360	     -6.76707066	      5.19335973	      1.04840205	      0.92666528	      0.47293357	     12.69190706	      3.59774112	    -15.61001542	     18.11503217	     18.11503217	     13.00307546	     -0.29113443	      0.16753135	     41.78957747	     -9.03364734	      8.96504024	     69.83941266	     69.83941266	      8.64362914	    -18.95988664	     15.33799466	    -11.98042108	      3.43084704	      3.58226873	     17.43584556	    -18.04170345	      0.60812681	     76.35318515	     44.69338957	      0.00000000	      0.00000000	      3.19727758	     -7.32971857	     -4.48973646	     31.64541302	     46.99970284	      0.00000000	      0.00000000
     28.52742857	     -6.84128942	     -6.65745438	      5.18370651	      1.04743823	      0.92704645	      0.47281370	     12.09054419	      3.59130000	    -15.47288868	     17.65043892	     17.65043892	     13.12015137	     -0.18487340	      0.19781566	     42.87699091	     -8.82678240	      8.54259487	     67.36932395	     67.36932395	      8.92188656	    -19.00184833	     15.65087650	    -12.07202455	      3.23432164	      3.59481831	     20.11856645	    -17.74380046	      0.30934375	     78.29110656	     44.65657835	      0.00000000	      0.00000000	      1.90808087	     -7.20452313	     -4.36620941	     30.28647285	     46.95304126	      0.00000000	      0.00000000
     28.53907143	     -7.11220456	     -6.58242863	      5.10031058	      1.04645407	      0.92710763	      0.47255475	     11.69763428	      3.57704142	    -15.31145598	     17.31604247	     17.31604247	     13.29394556	     -0.06354149	      0.17284799	     43.88235140	     -8.62337113	      8.20203439	     64.49890373	     64.49890373	      9.11297289	    -18.96516053	     15.95541154	    -11.90865156	      3.10244838	      4.11869624	     22.60069234	    -17.93006454	      0.03766693	     79.68201307	     44.63288246	      0.00000000	      0.00000000	      0.70103214	     -6.95338722	     -4.27122801	     29.36468190	     46.91614432	      0.00000000	      0.00000000
     28.55071429	     -7.19574142	     -6.45606585	      5.07908629	      1.04571205	      0.92735617	      0.47205462	     10.93158374	      3.53384283	    -15.26249897	     16.69889886	     16.69889886	     13.41957791	      0.28230325	     -0.01875462	     44.38702653	     -8.29275057	      8.01389502	     61.19675711	     61.19675711	      9.24118770	    -18.91202893	     16.05585248	    -12.07645849	      3.02121500	      3.68642185	     25.22138481	    -17.72661541	      1.46064206	     83.58449413	     44.50527659	      0.00000000	      0.00000000	      0.16392503	     -6.84849434	     -3.53993760	     25.45891734	     46.76549866	      0.00000000	      0.00000000
     28.56235714	     -7.39731915	     -6.30664791	      4.95524956	      1.04506677	      0.92729264	      0.47146375	     10.36570083	      3.44386124	    -15.08972096	     16.24098566	     16.24098566	     13.61673011	      0.50994187	     -0.04978357	     44.73834497	     -7.93589181	      7.90051446	     57.54346180	     57.54346180	      9.38483467	    -18.75580214	     16.18715327	    -12.05804262	      2.83515081	      3.74372599	     27.82554980	    -17.24295770	      1.30714683	     85.65499604	     44.46339045	      0.00000000	      0.00000000	     -1.13487597	     -6.72649942	     -3.36509511	     24.47786927	     46.70447277	      0.00000000	      0.00000000
     28.57400000	     -7.73775522	     -6.18084064	      4.76442024	      1.04442812	      0.92678106	      0.47074389	      9.97509643	      3.34779980	    -14.88530207	     15.83625632	     15.83625632	     13.88951280	      0.77014085	     -0.11922745	     45.01742441	     -7.58922420	      7.92673328	     53.64082447	     53.64082447	      9.56263047	    -18.40554672	     16.34428989	    -11.81956289	      2.66300642	      4.17119841	     30.39498240	    -17.16972685	      1.18592596	     87.29942149	     44.42967849	      0.00000000	      0.00000000	     -2.32914313	     -6.53387016	     -3.24848156	     23.82617836	     46.65746650	      0.00000000	      0.00000000
     28.58564286	     -7.87091924	     -6.09708966	      4.60028933	      1.04422883	      0.92631179	      0.46981525	      9.25602675	      3.27213688	    -15.00292213	     15.31303160	     15.31303160	     14.20411859	      1.55663902	     -0.25198182	     44.70883110	     -7.32667056	      8.07712570	     49.28717529	     49.28717529	      8.93761534	    -18.01832320	     14.17679839	    -11.87307704	      2.63963288	      4.09643648	     32.82813170	    -17.06932834	      2.49097516	     90.60258184	     44.34234352	      0.00000000	      0.00000000	     -3.81371345	     -6.53219278	     -2.27740122	     23.25230484	     46.40017670	      0.00000000	      0.00000000
     28.59728571	     -8.10023006	     -5.97997096	      4.36296295	      1.04417631	      0.92545353	      0.46880110	      8.67129332	      3.19323516	    -14.75354606	     14.85330595	     14.85330595	     14.56653797	      1.83990236	     -0.31570247	     44.35685532	     -7.04302957	      8.34053340	     44.98251637	     44.98251637	      9.14970476	    -17.18855895	     14.36870685	    -11.68886737	      2.51515370	      4.38171834	     35.28324972	    -16.62112410	      2.38094750	     92.22301726	     44.31195264	      0.00000000	      0.00000000	     -5.10326007	     -6.35428620	     -2.09118921	     22.83434949	     46.33263063	      0.00000000	      0.00000000
     28.60892857	     -8.27186585	     -5.93966872	      4.11039254	      1.04443512	      0.92431649	      0.46765217	      7.95209948	      3.18808906	    -14.62994970	     14.29331254	     14.29331254	     14.98146279	      2.34191419	     -0.37599049	     43.74747458	     -6.90832482	      8.65626688	     40.64624967	     40.64624967	      9.38559437	    -16.07436202	     14.36192355	    -11.58256468	      2.50845432	      4.46069314	     37.72169358	    -16.02828614	      2.64942266	     94.23719883	     44.25966272	      0.00000000	      0.00000000	     -6.56111410	     -6.18488486	     -1.83197100	     22.63922245	     46.24091896	      0.00000000	      0.00000000
     28.62057143	     -8.41526884	     -6.00651871	      3.83419277	      1.04507000	      0.92275667	      0.46642497	      7.18424113	      3.27507220	    -14.59897913	     13.76578642	     13.76578642	     15.61028395	      3.06103036	     -0.11167922	     42.91267249	     -6.97712465	      8.94345301	     36.26034414	     36.26034414	      8.52275997	    -15.03012265	     11.88082673	    -11.42692612	      2.64881418	      4.28632526	     40.37112625	    -15.46376614	      3.82701904	     95.93809571	     44.32827972	      0.00000000	      0.00000000	     -9.20028808	     -6.60013875	      1.82911309	     25.11833151	     45.40220993	      0.00000000	      0.00000000
     28.63221429	     -8.50666406	     -6.02234671	      3.49253423	      1.04604153	      0.92098606	      0.46514044	      6.37366469	      3.31659851	    -14.36508296	     13.29874088	     13.29874088	     16.16193396	      3.50958957	     -0.25728803	     42.01757289	     -7.08099162	      9.05227585	     32.40432682	     32.40432682	      8.81944079	    -13.57257095	     12.54833542	    -11.25032410	      2.71215933	      4.60961265	     42.53641852	    -14.99923322	      4.03669634	     97.59040349	     44.28807638	      0.00000000	      0.00000000	    -10.50455355	     -6.41055987	      2.07199953	     24.85835283	     45.33633783	      0.00000000	      0.00000000
     28.64385714	     -8.59437792	     -6.15900448	      3.18485398	      1.04722423	      0.91883433	      0.46372226	      5.51328479	      3.46417773	    -14.27836247	     12.77544344	     12.77544344	     16.79575273	      4.17431735	     -0.25710752	     41.23802518	     -7.31776753	      9.09148660	     29.17255966	     29.17255966	      8.95569278	    -12.05048573	     13.32721759	    -11.05937506	      2.94177852	      4.72664406	     44.70846596	    -14.58001167	      4.92340497	     99.49852930	     44.23952834	      0.00000000	      0.00000000	    -12.21318201	     -6.25442080	      2.73681975	     25.61690834	     45.18258550	      0.00000000	      0.00000000
     28.65550000	     -8.65572139	     -6.19124747	      2.81178275	      1.04869440	      0.91650250	      0.46223305	      4.72391619	      3.47921495	    -13.90262799	     12.48945689	     12.48945689	     17.46861463	      4.46375042	     -0.38563053	     40.39122894	     -7.51231056	      8.85421013	     26.43751582	     26.43751582	      8.81247318	    -10.84887561	     13.87505830	    -10.80459196	      3.01735778	      5.04301720	     46.67872029	    -14.02527113	      5.10177844	    100.71031395	     44.21230556	      0.00000000	      0.00000000	    -13.49407925	     -6.12773594	      2.95312366	     25.55192470	     45.12211197	      0.00000000	      0.00000000
     28.66714286	     -8.68062817	     -6.31005487	      2.47912082	      1.05036173	      0.91407845	      0.46065558	      3.85237899	      3.57092201	    -13.63454345	     12.14529490	     12.14529490	     18.15960824	      4.86122786	     -0.32919215	     39.65856442	     -7.78545273	      8.42529112	     24.42870662	     24.42870662	      8.42399565	     -9.80183004	     14.09213060	    -10.64517288	      3.21139252	      4.98041638	     48.60507313	    -13.22186379	      5.78058031	    102.21864645	     44.16757476	      0.00000000	      0.00000000	    -15.03236255	     -5.90496733	      3.36209837	     25.97583009	     45.02182004	      0.00000000	      0.00000000
     28.67878571	     -8.68122068	     -6.41754365	      2.12877616	      1.05222079	      0.91150005	      0.45898234	      3.10062180	      3.58878021	    -13.34579425	     12.14422655	     12.14422655	     19.18373301	      5.21932626	      0.34142759	     38.99989120	     -8.05551501	      7.77294897	     23.07496891	     23.07496891	      7.37028018	     -9.21257080	     12.57146352	    -10.41772371	      3.37487580	      4.78769488	     50.54964953	    -12.59112668	      7.03433757	    103.07251177	     44.17149189	      0.00000000	      0.00000000	    -17.11988912	     -6.05503512	      4.75747684	     28.02708486	     44.76190773	      0.00000000	      0.00000000
     28.69042857	     -8.65506130	     -6.46364141	      1.80712909	      1.05415634	      0.90908988	      0.45715492	      2.40155407	      3.51042223	    -12.95723855	     12.29777206	     12.29777206	     20.06258978	      5.32484477	      0.73763008	     38.40102126	     -8.22995617	      7.03974043	     22.30579306	     22.30579306	      5.85386897	     -9.09057752	     10.24464280	    -10.21788528	      3.46613204	      4.82584504	     51.98238291	    -11.83546787	      7.28494416	    104.15043658	     44.21749886	      0.00000000	      0.00000000	    -18.30506520	     -6.11368431	      6.49652039	     28.28400717	     44.53733174	      0.00000000	      0.00000000
